<svg xmlns="http://www.w3.org/2000/svg" width="25" height="25" viewBox="0 0 25 25"><defs><style>.a,.b{fill:none;}.b{stroke:#000;stroke-linecap:round;stroke-linejoin:round;stroke-width:2px;}</style></defs><g transform="translate(0 0)"><rect class="a" width="25" height="25" transform="translate(0 0)"/><path class="b" d="M41.233,80H49.7a.769.769,0,0,1,.769.769V91.541a.769.769,0,0,1-.769.769H32.769A.772.772,0,0,1,32,91.541V82.308" transform="translate(-28.922 -72.601)"/><path class="b" d="M37.9,60.616H32V56.769A.769.769,0,0,1,32.769,56H37.9a.769.769,0,0,1,.462.154l2.872,2.154L38.36,60.463A.769.769,0,0,1,37.9,60.616Z" transform="translate(-28.922 -50.909)"/></g></svg>