<svg xmlns="http://www.w3.org/2000/svg" xmlns:xlink="http://www.w3.org/1999/xlink" width="122.449" height="121.647" viewBox="0 0 122.449 121.647"><defs><style>.a{fill:#fff;}.b{clip-path:url(#a);}.c{fill:#6d86ff;}.d{fill:#f2f4ff;}.e{fill:#e0ebfc;}.f{fill:#fddb66;}.g{fill:#3762cc;}.h{fill:#ffea92;}.i{fill:#eaa97d;}</style><clipPath id="a"><path class="a" d="M0,121.647V0H86.693a13,13,0,0,1,13,13V53.077c6.276-.671,10.893-1.536,10.964-2.9.233-4.485,9.759,27.131,11.617,29.15S110.656,110.5,110.656,110.5s-5.338.879-11.474,1.769a13.005,13.005,0,0,1-12.489,9.382Z" transform="translate(-9622 3262)"/></clipPath></defs><g class="b" transform="translate(9622 -3262)"><g transform="translate(-9603.953 3292.263)"><path class="c" d="M-76,53.812V87.449a5.592,5.592,0,0,0,5.762,5.406h47.532a5.592,5.592,0,0,0,5.761-5.406V53.812Zm0,0" transform="translate(76.033 -35.225)"/><path class="d" d="M74.069,79.865H68.487A1.284,1.284,0,0,1,67.18,78.6V73.437a1.284,1.284,0,0,1,1.307-1.261h5.582a1.284,1.284,0,0,1,1.306,1.261V78.6a1.284,1.284,0,0,1-1.306,1.261Zm0,0" transform="translate(-35.379 -49.657)"/><path class="d" d="M74.069,135.412H68.487a1.285,1.285,0,0,1-1.307-1.261v-5.167a1.284,1.284,0,0,1,1.307-1.26h5.582a1.284,1.284,0,0,1,1.306,1.26v5.167a1.284,1.284,0,0,1-1.306,1.261Zm0,0" transform="translate(-34.746 -93.523)"/><path class="d" d="M74.069,189.58H68.487a1.284,1.284,0,0,1-1.307-1.261v-5.167a1.284,1.284,0,0,1,1.307-1.26h5.582a1.284,1.284,0,0,1,1.306,1.26v5.167a1.284,1.284,0,0,1-1.306,1.261Zm0,0" transform="translate(-34.746 -135.881)"/><path class="d" d="M131.2,79.865h-5.581a1.284,1.284,0,0,1-1.307-1.261V73.437a1.284,1.284,0,0,1,1.307-1.261H131.2a1.284,1.284,0,0,1,1.307,1.261V78.6a1.285,1.285,0,0,1-1.307,1.261Zm0,0" transform="translate(-79.833 -49.657)"/><path class="d" d="M131.2,79.865h-5.581a1.284,1.284,0,0,1-1.307-1.261V73.437a1.284,1.284,0,0,1,1.307-1.261H131.2a1.284,1.284,0,0,1,1.307,1.261V78.6a1.285,1.285,0,0,1-1.307,1.261Zm0,0" transform="translate(-79.833 -37.976)"/><path class="d" d="M131.2,79.865h-5.581a1.284,1.284,0,0,1-1.307-1.261V73.437a1.284,1.284,0,0,1,1.307-1.261H131.2a1.284,1.284,0,0,1,1.307,1.261V78.6a1.285,1.285,0,0,1-1.307,1.261Zm0,0" transform="translate(-79.833 -26.111)"/><path class="e" d="M133.276,137.733H126.01a1.673,1.673,0,0,1-1.7-1.642v-6.727a1.672,1.672,0,0,1,1.7-1.641h7.265a1.672,1.672,0,0,1,1.7,1.641v6.727a1.672,1.672,0,0,1-1.7,1.642Zm0,0" transform="translate(-79.641 -80.587)"/><path class="d" d="M16.94,135.412H11.358a1.285,1.285,0,0,1-1.307-1.261v-5.167a1.284,1.284,0,0,1,1.307-1.26H16.94a1.284,1.284,0,0,1,1.306,1.26v5.167a1.284,1.284,0,0,1-1.306,1.261Zm0,0" transform="translate(9.707 -93.31)"/><path class="d" d="M16.94,189.58H11.358a1.285,1.285,0,0,1-1.307-1.261v-5.167a1.284,1.284,0,0,1,1.307-1.26H16.94a1.284,1.284,0,0,1,1.306,1.26v5.167a1.284,1.284,0,0,1-1.306,1.261Zm0,0" transform="translate(9.707 -135.826)"/><path class="d" d="M-40.186,135.412h-5.582a1.285,1.285,0,0,1-1.306-1.261v-5.167a1.284,1.284,0,0,1,1.306-1.26h5.582a1.285,1.285,0,0,1,1.307,1.26v5.167a1.285,1.285,0,0,1-1.307,1.261Zm0,0" transform="translate(54.157 -93.31)"/><path class="d" d="M-40.186,189.58h-5.582a1.284,1.284,0,0,1-1.306-1.261v-5.167a1.284,1.284,0,0,1,1.306-1.26h5.582a1.285,1.285,0,0,1,1.307,1.26v5.167a1.285,1.285,0,0,1-1.307,1.261Zm0,0" transform="translate(54.157 -135.881)"/><path class="f" d="M-22.706-3.692H-70.238A5.592,5.592,0,0,0-76,1.714V8.62h59.055V1.714a5.592,5.592,0,0,0-5.761-5.406Zm0,0" transform="translate(76.033 9.967)"/><path class="g" d="M-25.04,91.14H-72.573A6.254,6.254,0,0,1-79,85.092V51.454a.655.655,0,0,1,.666-.642h59.055a.655.655,0,0,1,.666.642V85.092A6.253,6.253,0,0,1-25.04,91.14ZM-77.669,52.1V85.092a4.944,4.944,0,0,0,5.1,4.764H-25.04a4.943,4.943,0,0,0,5.1-4.764V52.1Zm0,0" transform="translate(79 -32.867)"/><path class="g" d="M-19.279,6.9H-78.334A.654.654,0,0,1-79,6.263V-.643a6.254,6.254,0,0,1,6.427-6.049H-25.04A6.253,6.253,0,0,1-18.614-.643V6.263a.654.654,0,0,1-.666.642ZM-77.669,5.62h57.724V-.643a4.944,4.944,0,0,0-5.1-4.764H-72.573a4.944,4.944,0,0,0-5.1,4.764Zm0,0" transform="translate(79 12.325)"/><path class="c" d="M45.483-16.486H45.4a2.792,2.792,0,0,1-2.84-2.741v-8.032A2.792,2.792,0,0,1,45.4-30h.081a2.792,2.792,0,0,1,2.841,2.741v8.032a2.792,2.792,0,0,1-2.841,2.741Zm0,0" transform="translate(-16.223 30.642)"/><path class="c" d="M-33.035-16.486h-.081a2.792,2.792,0,0,1-2.841-2.741v-8.032A2.792,2.792,0,0,1-33.116-30h.081a2.792,2.792,0,0,1,2.84,2.741v8.032a2.792,2.792,0,0,1-2.84,2.741Zm0,0" transform="translate(45.507 30.642)"/><path class="c" d="M124-16.486h-.081a2.792,2.792,0,0,1-2.84-2.741v-8.032A2.792,2.792,0,0,1,123.918-30H124a2.792,2.792,0,0,1,2.841,2.741v8.032A2.792,2.792,0,0,1,124-16.486Zm0,0" transform="translate(-77.318 30.642)"/><path class="g" d="M43.149-18.2h-.081a3.451,3.451,0,0,1-3.506-3.383v-8.032A3.45,3.45,0,0,1,43.068-33h.081a3.45,3.45,0,0,1,3.506,3.383v8.032A3.449,3.449,0,0,1,43.149-18.2Zm-.081-13.514a2.14,2.14,0,0,0-2.175,2.1v8.032a2.14,2.14,0,0,0,2.175,2.1h.081a2.14,2.14,0,0,0,2.174-2.1v-8.032a2.14,2.14,0,0,0-2.174-2.1Zm0,0" transform="translate(-13.256 33)"/><path class="g" d="M-35.37-18.2h-.081a3.451,3.451,0,0,1-3.507-3.383v-8.032A3.45,3.45,0,0,1-35.45-33h.081a3.451,3.451,0,0,1,3.506,3.383v8.032A3.45,3.45,0,0,1-35.37-18.2Zm-.081-13.514a2.141,2.141,0,0,0-2.175,2.1v8.032a2.14,2.14,0,0,0,2.175,2.1h.081a2.14,2.14,0,0,0,2.175-2.1v-8.032a2.14,2.14,0,0,0-2.175-2.1Zm0,0" transform="translate(47.209 33)"/><path class="g" d="M121.664-18.2h-.081a3.451,3.451,0,0,1-3.506-3.383v-8.032A3.45,3.45,0,0,1,121.584-33h.081a3.451,3.451,0,0,1,3.507,3.383v8.032a3.45,3.45,0,0,1-3.507,3.383Zm-.081-13.514a2.14,2.14,0,0,0-2.175,2.1v8.032a2.14,2.14,0,0,0,2.175,2.1h.081a2.141,2.141,0,0,0,2.175-2.1v-8.032a2.14,2.14,0,0,0-2.175-2.1Zm0,0" transform="translate(-74.351 33)"/><path class="f" d="M131.418,131.625H84.041a1.958,1.958,0,1,1,0-3.914h47.377a1.958,1.958,0,1,1,0,3.914Zm0,0" transform="translate(-49.561 -80.578)"/><path class="h" d="M143.573,300.414H133.026l-7.705,6.039a.832.832,0,0,0,.546,1.485h24.864a.832.832,0,0,0,.546-1.485Zm0,0" transform="translate(-80.132 -205.141)"/><path class="f" d="M71.149,175.4l-3.211-1.849a15.657,15.657,0,0,1-7.928-13.472,2.564,2.564,0,0,1,2.605-2.514,2.656,2.656,0,0,1,1.724.629l2.284,1.946c-.007-.255-.015-.51-.015-.764v-3.016a5.749,5.749,0,0,0-3.993-1.619,5.439,5.439,0,0,0-5.533,5.339,18.389,18.389,0,0,0,9.356,15.9l9.39,5.407a32.857,32.857,0,0,1-4.679-5.984Zm0,0" transform="translate(-31.832 -100.074)"/><path class="f" d="M228.458,156.355c0,3.628,0,3.043-.014,3.779,2.277-1.939,2.727-2.557,3.988-2.557a2.564,2.564,0,0,1,2.605,2.514,15.661,15.661,0,0,1-7.928,13.473l-3.181,1.831a32.882,32.882,0,0,1-4.663,5.974l9.344-5.38a18.39,18.39,0,0,0,9.355-15.9c0-4.287-5.266-7.349-9.506-3.737Zm0,0" transform="translate(-147.169 -100.086)"/><path class="f" d="M90.062,141.754v8.254c0,12.16,7.3,23.311,18.93,28.933h8.653c11.634-5.622,18.93-16.773,18.93-28.933v-8.254Zm0,0" transform="translate(-55.286 -90.707)"/><path class="i" d="M185.615,209.294a14.253,14.253,0,0,0,3.019-1.329,2.362,2.362,0,0,1,.248-1.8c.453-.94,1.189-1.536,1.643-1.332.389.174.441.881.165,1.671a13.861,13.861,0,0,0,3.9-5.5,2.727,2.727,0,0,1-1.145-1.3c-.453-.94-.453-1.867,0-2.071s1.19.392,1.644,1.332c.026.053.05.108.073.161a13.148,13.148,0,0,0,.115-5.283.594.594,0,0,1,.5-.685.612.612,0,0,1,.711.48,14.466,14.466,0,0,1,.207,1.789,3.973,3.973,0,0,1,.426-.4c.823-.666,1.75-.906,2.073-.536s-.085,1.21-.907,1.876a2.837,2.837,0,0,1-1.592.7,14.58,14.58,0,0,1-2.048,6.581c.924-.378,1.805-.358,2.007.059.211.438-.406,1.148-1.38,1.585a2.485,2.485,0,0,1-1.931.211,15.359,15.359,0,0,1-7.354,4.914.535.535,0,0,1-.081.02.614.614,0,0,1-.689-.4.59.59,0,0,1,.4-.744Zm0,0" transform="translate(-122.935 -127.774)"/><path class="i" d="M120.6,209.294a14.27,14.27,0,0,1-3.018-1.329,2.368,2.368,0,0,0-.248-1.8c-.453-.94-1.189-1.536-1.643-1.332-.389.174-.443.881-.165,1.671a13.863,13.863,0,0,1-3.9-5.5,2.731,2.731,0,0,0,1.144-1.3c.455-.94.455-1.867,0-2.071s-1.19.392-1.644,1.332c-.026.053-.05.108-.073.161a13.127,13.127,0,0,1-.116-5.283.593.593,0,0,0-.5-.685.611.611,0,0,0-.71.48,14.3,14.3,0,0,0-.208,1.789,3.942,3.942,0,0,0-.425-.4c-.824-.666-1.751-.906-2.073-.536s.085,1.21.907,1.876a2.831,2.831,0,0,0,1.592.7,14.576,14.576,0,0,0,2.048,6.581c-.924-.378-1.805-.358-2.007.059-.211.438.406,1.148,1.38,1.585a2.483,2.483,0,0,0,1.93.211,15.365,15.365,0,0,0,7.354,4.914.535.535,0,0,0,.081.02.615.615,0,0,0,.691-.4.589.589,0,0,0-.4-.744Zm0,0" transform="translate(-67.272 -127.774)"/><path class="f" d="M162.254,274.753H153.6c-.081-.039-.16-.082-.24-.121l-.571,7.159h10.547l-.765-7.2c-.106.052-.21.108-.317.159Zm0,0" transform="translate(-99.894 -186.518)"/><path class="g" d="M129.285,130.3H81.907a2.8,2.8,0,1,1,0-5.587h47.377a2.8,2.8,0,1,1,0,5.587Zm-47.377-3.913a1.122,1.122,0,1,0,0,2.242h47.377a1.122,1.122,0,1,0,0-2.242Zm0,0" transform="translate(-47.428 -78.414)"/><path class="g" d="M148.595,306.613H123.732A1.712,1.712,0,0,1,122.1,305.5a1.618,1.618,0,0,1,.54-1.858l7.705-6.039a.885.885,0,0,1,.546-.186h10.547a.886.886,0,0,1,.546.186l7.705,6.039a1.62,1.62,0,0,1,.54,1.858,1.712,1.712,0,0,1-1.634,1.113Zm-17.4-7.524-7.466,5.853h24.863l-7.466-5.851Zm0,0" transform="translate(-77.996 -202.98)"/><path class="g" d="M73.694,180.055a.89.89,0,0,1-.444-.118l-9.39-5.406a19.313,19.313,0,0,1-9.778-16.617,6.3,6.3,0,0,1,6.4-6.176,6.6,6.6,0,0,1,4.568,1.829.821.821,0,0,1,.292.626v3.016c0,.214.006.426.012.637l0,.107a.834.834,0,0,1-.5.779.892.892,0,0,1-.94-.131l-2.284-1.946a1.779,1.779,0,0,0-1.151-.419,1.711,1.711,0,0,0-1.739,1.678,14.822,14.822,0,0,0,7.506,12.754l3.211,1.85a.85.85,0,0,1,.3.3,32.058,32.058,0,0,0,4.558,5.83.812.812,0,0,1,.049,1.1.876.876,0,0,1-.677.315ZM60.482,153.41a4.593,4.593,0,0,0-4.667,4.5,17.644,17.644,0,0,0,8.933,15.181l5.115,2.944q-.787-1.07-1.48-2.194l-3.023-1.74a16.5,16.5,0,0,1-8.35-14.191,3.417,3.417,0,0,1,3.472-3.35,3.542,3.542,0,0,1,2.3.84l.829.706v-1.53a4.645,4.645,0,0,0-3.128-1.168Zm0,0" transform="translate(-29.699 -97.908)"/><path class="g" d="M217.131,180.045a.878.878,0,0,1-.677-.314.814.814,0,0,1,.049-1.1,32.1,32.1,0,0,0,4.545-5.822.849.849,0,0,1,.3-.295l3.18-1.832a14.821,14.821,0,0,0,7.5-12.754,1.711,1.711,0,0,0-1.739-1.678c-.668,0-.923.183-2.391,1.463-.3.259-.633.552-1.022.884a.894.894,0,0,1-.94.13.831.831,0,0,1-.5-.777l0-.2c.01-.362.009-.362.009-1.895v-1.67a.827.827,0,0,1,.293-.627,6.758,6.758,0,0,1,7.168-1.275,6.193,6.193,0,0,1,3.778,5.64,19.31,19.31,0,0,1-9.777,16.616l-9.343,5.38a.89.89,0,0,1-.445.118Zm5.3-6.2q-.692,1.121-1.478,2.192l5.08-2.924a17.644,17.644,0,0,0,8.933-15.181,4.517,4.517,0,0,0-2.758-4.115,4.874,4.874,0,0,0-5.015.768v1.5c1.2-1.031,1.872-1.507,3.106-1.507a3.417,3.417,0,0,1,3.472,3.35,16.493,16.493,0,0,1-8.351,14.191Zm0,0" transform="translate(-145.034 -97.924)"/><path class="g" d="M115.512,177.617h-8.653a.886.886,0,0,1-.388-.088c-11.971-5.785-19.409-17.158-19.409-29.68v-8.254a.852.852,0,0,1,.867-.836h46.513a.852.852,0,0,1,.867.836v8.254c0,12.522-7.437,23.895-19.407,29.68a.907.907,0,0,1-.389.088Zm-8.447-1.672h8.242c11.274-5.526,18.269-16.274,18.269-28.1V140.43H88.8v7.418c0,11.822,6.995,22.57,18.27,28.1Zm0,0" transform="translate(-53.153 -88.546)"/><path class="g" d="M161.2,280.462H150.655a.879.879,0,0,1-.635-.268.818.818,0,0,1-.229-.633l.571-7.159a.838.838,0,0,1,.439-.665.9.9,0,0,1,.818-.016l.06.03h8.23l.132-.067a.9.9,0,0,1,.809.009.836.836,0,0,1,.449.65l.765,7.2a.817.817,0,0,1-.218.646.887.887,0,0,1-.644.275Zm-9.611-1.672h8.651l-.57-5.366h-7.653Zm0,0" transform="translate(-97.76 -184.353)"/><g transform="translate(49.047 58.098)"><ellipse class="c" cx="8.5" cy="9.5" rx="8.5" ry="9.5" transform="translate(0.796 -0.36)"/><g transform="translate(0 0.175)"><g transform="translate(0 0)"><path class="e" d="M1885.524,895.5a9.2,9.2,0,1,1,9.2-9.2,9.212,9.212,0,0,1-9.2,9.2Zm0-16.838a7.638,7.638,0,1,0,7.636,7.637,7.587,7.587,0,0,0-7.636-7.637Z" transform="translate(-1876.322 -877.098)"/><g transform="translate(7.625 0.402)"><path class="e" d="M1895.563,887.969a9.086,9.086,0,0,1-9.077-9.073,8.8,8.8,0,0,1,.046-.892.4.4,0,0,1,.361-.361c.294-.028.592-.044.893-.044a9.084,9.084,0,0,1,9.073,9.073,8.866,8.866,0,0,1-.046.893.4.4,0,0,1-.361.361c-.292.028-.589.044-.889.044Zm-8.258-9.552c-.01.159-.015.317-.015.478a8.28,8.28,0,0,0,8.272,8.269c.16,0,.318,0,.477-.015.01-.158.015-.318.015-.479a8.277,8.277,0,0,0-8.268-8.268q-.243,0-.481.015Z" transform="translate(-1886.486 -877.598)"/></g><g transform="translate(0.402 7.626)"><path class="e" d="M1885.9,897.633a9.086,9.086,0,0,1-9.077-9.074c0-.3.018-.6.044-.891a.4.4,0,0,1,.361-.362c.294-.029.591-.044.895-.045a9.084,9.084,0,0,1,9.073,9.074c0,.3-.016.6-.044.892a.4.4,0,0,1-.363.362c-.294.028-.589.044-.889.044Zm-8.256-9.552c-.01.158-.016.318-.016.479a8.28,8.28,0,0,0,8.272,8.269c.16,0,.319-.005.477-.015.01-.159.015-.318.015-.479a8.278,8.278,0,0,0-8.268-8.269c-.161,0-.321.006-.48.015Z" transform="translate(-1876.822 -887.261)"/></g><g transform="translate(2.846 2.845)"><path class="e" d="M1880.772,893.684l-.569-.569,12.139-12.139.569.569-12.14,12.139Z" transform="translate(-1880.203 -880.977)"/></g></g></g></g></g></g></svg>