<svg xmlns="http://www.w3.org/2000/svg" xmlns:xlink="http://www.w3.org/1999/xlink" width="110.388" height="101.398" viewBox="0 0 110.388 101.398"><defs><style>.a{fill:none;}.b{fill:#6d86ff;}.c{fill:#3762cc;}.d{fill:#ced6ff;}.e{fill:#fcc400;}.f{clip-path:url(#a);}</style><clipPath id="a"><rect class="a" width="89.8" height="65.239" transform="translate(0 0)"/></clipPath></defs><g transform="translate(32.712 -0.16) rotate(30)"><path class="b" d="M51.739,0H1.119A1.119,1.119,0,0,0,0,1.119V16.872a1.118,1.118,0,0,0,.9,1.1L25.18,22.931a5.61,5.61,0,0,1,4.395,4.316A22.638,22.638,0,1,0,51.739,0Zm0,0" transform="translate(0.942 19.589)"/><path class="c" d="M23.383,46.765A23.383,23.383,0,1,1,46.765,23.383,23.409,23.409,0,0,1,23.383,46.765Zm0-45.273a21.89,21.89,0,1,0,21.89,21.89,21.915,21.915,0,0,0-21.89-21.89Zm0,0" transform="translate(29.298 18.843)"/><path class="d" d="M14.327,28.657A14.329,14.329,0,1,1,28.656,14.329,14.344,14.344,0,0,1,14.327,28.657Zm0,0" transform="translate(38.354 27.897)"/><path class="e" d="M1.726,12.127A1.726,1.726,0,0,1,0,10.4V1.726a1.726,1.726,0,0,1,3.451,0V10.4a1.726,1.726,0,0,1-1.726,1.726Zm0,0" transform="translate(14.389 0)"/><path class="e" d="M.505,9.08a1.726,1.726,0,0,1,0-2.44L6.639.506A1.726,1.726,0,0,1,9.08,2.946L2.946,9.08a1.725,1.725,0,0,1-2.441,0Zm0,0" transform="translate(21.77 6.494)"/><path class="e" d="M9.08,9.08a1.726,1.726,0,0,0,0-2.44L2.946.506A1.726,1.726,0,1,0,.505,2.946L6.639,9.08a1.726,1.726,0,0,0,2.441,0Zm0,0" transform="translate(0.875 6.494)"/><path class="d" d="M2.5,0H0A22.423,22.423,0,0,1,.619,2.985H2.5A3.138,3.138,0,0,1,5.125,7.641,2.992,2.992,0,0,1,2.5,9.2H.619A22.424,22.424,0,0,1,0,12.189H2.5A5.975,5.975,0,0,0,8.469,5.97,5.97,5.97,0,0,0,2.5,0Zm0,0" transform="translate(74.481 36.131)"/><path class="c" d="M3.245,13.681H.747a.747.747,0,0,1-.719-.948,21.9,21.9,0,0,0,.6-2.886A.748.748,0,0,1,1.365,9.2h1.88a2.24,2.24,0,0,0,1.97-1.172,2.614,2.614,0,0,0-.09-2.5A2.111,2.111,0,0,0,3.245,4.478H1.365a.747.747,0,0,1-.739-.645A21.936,21.936,0,0,0,.028.947.746.746,0,0,1,.747,0h2.5A6.724,6.724,0,0,1,9.961,6.716a6.7,6.7,0,0,1-6.716,6.965ZM1.708,12.189H3.245A5.235,5.235,0,0,0,8.469,6.716,5.23,5.23,0,0,0,3.245,1.493H1.708q.174.742.3,1.492H3.245A3.592,3.592,0,0,1,6.406,4.77a4.092,4.092,0,0,1,.119,3.974A3.731,3.731,0,0,1,3.245,10.7H2.006c-.083.5-.183,1-.3,1.493Zm0,0" transform="translate(73.735 35.385)"/><path class="c" d="M15.074,30.15A15.075,15.075,0,1,1,30.149,15.075,15.092,15.092,0,0,1,15.074,30.15Zm0-28.657A13.582,13.582,0,1,0,28.656,15.075,13.6,13.6,0,0,0,15.074,1.492Zm0,0" transform="translate(37.607 27.151)"/><path class="c" d="M52.491,46.765a23.351,23.351,0,0,1-22.9-18.62,4.845,4.845,0,0,0-3.813-3.736L1.493,19.446A1.873,1.873,0,0,1,0,17.619V1.866A1.868,1.868,0,0,1,1.866,0H52.487A23.347,23.347,0,0,1,69.108,39.781a23.231,23.231,0,0,1-15.953,6.975c-.223.007-.443.01-.664.01ZM1.866,1.493a.373.373,0,0,0-.373.373V17.619a.375.375,0,0,0,.3.365l24.286,4.962a6.335,6.335,0,0,1,4.975,4.9,21.862,21.862,0,0,0,21.438,17.43c.208,0,.413,0,.622-.009A22.1,22.1,0,0,0,74.375,23.711,21.89,21.89,0,0,0,52.487,1.493Zm0,0" transform="translate(0.194 18.843)"/><g transform="translate(0 0.185)"><g class="f" transform="translate(0 0)"><path class="c" d="M3.245,13.681H.747a.747.747,0,0,1-.719-.948,21.9,21.9,0,0,0,.6-2.886A.748.748,0,0,1,1.365,9.2h1.88a2.24,2.24,0,0,0,1.97-1.172,2.614,2.614,0,0,0-.09-2.5A2.111,2.111,0,0,0,3.245,4.478H1.365a.747.747,0,0,1-.739-.645A21.936,21.936,0,0,0,.028.947.746.746,0,0,1,.747,0h2.5A6.724,6.724,0,0,1,9.961,6.716a6.7,6.7,0,0,1-6.716,6.965ZM1.708,12.189H3.245A5.235,5.235,0,0,0,8.469,6.716,5.23,5.23,0,0,0,3.245,1.493H1.708q.174.742.3,1.492H3.245A3.592,3.592,0,0,1,6.406,4.77a4.092,4.092,0,0,1,.119,3.974A3.731,3.731,0,0,1,3.245,10.7H2.006c-.083.5-.183,1-.3,1.493Zm0,0" transform="translate(73.735 35.2)"/><path class="e" d="M12.794,13.814,3.384.776A1.84,1.84,0,0,0,1.392.066,1.947,1.947,0,0,0,0,2.024c.189,0,.842,0,1.03,0h0c.653,0,.447-.1,1.37,1.213.618.862,2.445,3.389,8.533,11.824a2.567,2.567,0,0,1,.493,1.835,2.47,2.47,0,0,1-3.6,1.857,2.568,2.568,0,0,1-1.182-1.377L2.419,6.343A6.6,6.6,0,0,1,.995,6.5H.083l4.5,11.751a4.717,4.717,0,0,0,4.394,3.025,4.788,4.788,0,0,0,2.662-.822,4.481,4.481,0,0,0,1.4-1.492,4.714,4.714,0,0,0-.243-5.149Zm0,0" transform="translate(75.985 42.38)"/></g></g></g></svg>