<svg xmlns="http://www.w3.org/2000/svg" xmlns:xlink="http://www.w3.org/1999/xlink" width="122.449" height="121.647" viewBox="0 0 122.449 121.647"><defs><style>.a{fill:#fff;}.b{clip-path:url(#a);}.c{fill:#f2f4ff;}.d{fill:#e0ebfc;}.e{fill:#fddb66;}.f{fill:#ffea92;}.g{fill:#eaa97d;}.h{fill:#3762cc;}.i{fill:#6d86ff;}</style><clipPath id="a"><path class="a" d="M0,121.647V0H86.693a13,13,0,0,1,13,13V53.077c6.276-.671,10.892-1.536,10.963-2.9.234-4.485,9.759,27.131,11.618,29.15S110.655,110.5,110.655,110.5s-5.337.879-11.473,1.769a13.005,13.005,0,0,1-12.489,9.382Z" transform="translate(-9622 3262)"/></clipPath></defs><g class="b" transform="translate(9622 -3262)"><g transform="translate(-9621.664 3302.692)"><path class="c" d="M77.306,193.193H69.1a1.888,1.888,0,0,1-1.921-1.854v-7.6a1.888,1.888,0,0,1,1.921-1.853h8.205a1.887,1.887,0,0,1,1.92,1.853v7.6a1.888,1.888,0,0,1-1.92,1.854Zm0,0" transform="translate(-55.345 -181.891)"/><path class="c" d="M134.434,83.478h-8.2a1.888,1.888,0,0,1-1.921-1.854V74.03a1.888,1.888,0,0,1,1.921-1.854h8.2a1.888,1.888,0,0,1,1.921,1.854v7.594a1.888,1.888,0,0,1-1.921,1.854Zm0,0" transform="translate(-94.772 -72.096)"/><path class="d" d="M137.49,142.437H126.81a2.459,2.459,0,0,1-2.5-2.414v-9.889a2.458,2.458,0,0,1,2.5-2.412h10.68a2.458,2.458,0,0,1,2.5,2.412v9.889a2.458,2.458,0,0,1-2.5,2.414Zm0,0" transform="translate(-94.49 -126.068)"/><path class="e" d="M154.638,133.465H84.994a2.879,2.879,0,1,1,0-5.754h69.644a2.879,2.879,0,1,1,0,5.754Zm0,0" transform="translate(-70.153 -126.061)"/><path class="f" d="M152.3,300.414H136.8l-11.327,8.877a1.223,1.223,0,0,0,.8,2.183h36.549a1.223,1.223,0,0,0,.8-2.183Zm0,0" transform="translate(-94.887 -227.999)"/><path class="e" d="M77.76,185.111l-4.72-2.718a23.016,23.016,0,0,1-11.653-19.8,3.769,3.769,0,0,1,3.83-3.7,3.9,3.9,0,0,1,2.534.925l3.357,2.86c-.01-.374-.022-.749-.022-1.124v-4.434a8.45,8.45,0,0,0-5.87-2.38,8,8,0,0,0-8.134,7.848A27.031,27.031,0,0,0,70.835,185.96l13.8,7.948a48.3,48.3,0,0,1-6.878-8.8Zm0,0" transform="translate(-55.808 -142.016)"/><path class="e" d="M232.779,157.106c0,5.333.006,4.474-.02,5.556,3.347-2.851,4.009-3.758,5.862-3.758a3.769,3.769,0,0,1,3.83,3.7A23.022,23.022,0,0,1,230.8,182.4l-4.676,2.691a48.34,48.34,0,0,1-6.855,8.782L233,185.969A27.033,27.033,0,0,0,246.753,162.6c0-6.3-7.741-10.8-13.974-5.493Zm0,0" transform="translate(-149.128 -142.025)"/><path class="e" d="M90.062,141.754v12.134c0,17.875,10.725,34.267,27.827,42.531h12.72c17.1-8.264,27.827-24.656,27.827-42.531V141.754Zm0,0" transform="translate(-74.785 -134.35)"/><path class="g" d="M185.815,216.883a20.953,20.953,0,0,0,4.438-1.953,3.472,3.472,0,0,1,.365-2.652c.667-1.381,1.748-2.259,2.415-1.958.572.256.648,1.3.242,2.456a20.375,20.375,0,0,0,5.736-8.085,4.009,4.009,0,0,1-1.684-1.908c-.667-1.381-.667-2.745,0-3.044s1.75.577,2.417,1.958c.038.078.073.158.108.237a19.328,19.328,0,0,0,.169-7.766.873.873,0,0,1,.732-1.007.9.9,0,0,1,1.045.706,21.27,21.27,0,0,1,.3,2.63,5.84,5.84,0,0,1,.625-.587c1.209-.98,2.573-1.332,3.047-.788s-.124,1.778-1.334,2.758a4.17,4.17,0,0,1-2.34,1.036,21.431,21.431,0,0,1-3.01,9.674c1.358-.556,2.654-.527,2.951.086.31.643-.6,1.687-2.028,2.33a3.653,3.653,0,0,1-2.838.311,22.578,22.578,0,0,1-10.811,7.224.783.783,0,0,1-.119.029.9.9,0,0,1-1.014-.592.867.867,0,0,1,.584-1.093Zm0,0" transform="translate(-129.52 -164.685)"/><path class="g" d="M127.036,216.883a20.976,20.976,0,0,1-4.437-1.953,3.48,3.48,0,0,0-.365-2.652c-.667-1.381-1.748-2.259-2.415-1.958-.572.256-.65,1.3-.242,2.456a20.379,20.379,0,0,1-5.735-8.085,4.015,4.015,0,0,0,1.682-1.908c.668-1.381.668-2.745,0-3.044s-1.75.577-2.416,1.958c-.038.078-.073.158-.108.237a19.3,19.3,0,0,1-.171-7.766.871.871,0,0,0-.732-1.007.9.9,0,0,0-1.043.706,21.031,21.031,0,0,0-.305,2.63,5.8,5.8,0,0,0-.625-.587c-1.211-.98-2.574-1.332-3.047-.788s.124,1.778,1.334,2.758a4.161,4.161,0,0,0,2.34,1.036,21.427,21.427,0,0,0,3.01,9.674c-1.358-.556-2.654-.527-2.951.086-.31.643.6,1.687,2.028,2.33a3.649,3.649,0,0,0,2.836.311,22.586,22.586,0,0,0,10.811,7.224.783.783,0,0,0,.119.029.9.9,0,0,0,1.015-.592.866.866,0,0,0-.586-1.093Zm0,0" transform="translate(-84.482 -164.685)"/><path class="e" d="M166.7,274.828h-12.72c-.12-.058-.236-.12-.353-.178l-.839,10.524h15.5l-1.125-10.58c-.156.077-.308.158-.466.234Zm0,0" transform="translate(-110.877 -212.758)"/><path class="h" d="M152.912,132.924H83.268a4.109,4.109,0,1,1,0-8.213h69.644a4.109,4.109,0,1,1,0,8.213Zm-69.644-5.753a1.649,1.649,0,1,0,0,3.3h69.644a1.649,1.649,0,1,0,0-3.3Zm0,0" transform="translate(-68.427 -124.29)"/><path class="h" d="M161.1,310.935H124.549a2.516,2.516,0,0,1-2.4-1.636,2.378,2.378,0,0,1,.794-2.731l11.326-8.877a1.3,1.3,0,0,1,.8-.274h15.5a1.3,1.3,0,0,1,.8.274l11.327,8.877a2.381,2.381,0,0,1,.794,2.731,2.516,2.516,0,0,1-2.4,1.636Zm-25.573-11.06-10.975,8.6,36.548,0-10.975-8.6Zm0,0" transform="translate(-93.159 -226.23)"/><path class="h" d="M82.911,193.363a1.308,1.308,0,0,1-.652-.173l-13.8-7.947a28.39,28.39,0,0,1-14.374-24.427,9.259,9.259,0,0,1,9.408-9.078,9.707,9.707,0,0,1,6.714,2.689,1.207,1.207,0,0,1,.429.92v4.434c0,.314.008.626.017.936l0,.157a1.226,1.226,0,0,1-.735,1.144,1.311,1.311,0,0,1-1.382-.192l-3.357-2.86a2.615,2.615,0,0,0-1.692-.616,2.516,2.516,0,0,0-2.556,2.466,21.788,21.788,0,0,0,11.033,18.748l4.72,2.72a1.25,1.25,0,0,1,.446.434,47.122,47.122,0,0,0,6.7,8.57,1.193,1.193,0,0,1,.071,1.613,1.288,1.288,0,0,1-.995.463ZM63.49,154.2a6.751,6.751,0,0,0-6.86,6.62,25.936,25.936,0,0,0,13.131,22.315l7.519,4.328q-1.157-1.573-2.176-3.225l-4.444-2.558a24.247,24.247,0,0,1-12.274-20.861,5.022,5.022,0,0,1,5.1-4.925,5.207,5.207,0,0,1,3.379,1.234l1.219,1.037v-2.249a6.828,6.828,0,0,0-4.6-1.718Zm0,0" transform="translate(-54.082 -140.243)"/><path class="h" d="M217.538,193.338a1.29,1.29,0,0,1-1-.461,1.2,1.2,0,0,1,.071-1.615A47.186,47.186,0,0,0,223.3,182.7a1.249,1.249,0,0,1,.446-.434l4.674-2.692a21.787,21.787,0,0,0,11.031-18.748,2.514,2.514,0,0,0-2.556-2.466c-.982,0-1.357.269-3.515,2.151-.436.381-.93.811-1.5,1.3a1.314,1.314,0,0,1-1.382.192,1.221,1.221,0,0,1-.735-1.143l.007-.288c.015-.531.013-.531.013-2.785v-2.455a1.215,1.215,0,0,1,.431-.922,9.934,9.934,0,0,1,10.537-1.874,9.1,9.1,0,0,1,5.553,8.291,28.386,28.386,0,0,1-14.372,24.425l-13.735,7.909a1.308,1.308,0,0,1-.653.174Zm7.787-9.117q-1.017,1.647-2.173,3.222l7.467-4.3a25.936,25.936,0,0,0,13.131-22.315,6.639,6.639,0,0,0-4.054-6.048,7.165,7.165,0,0,0-7.372,1.128v2.21c1.76-1.516,2.751-2.215,4.566-2.215a5.023,5.023,0,0,1,5.1,4.925,24.244,24.244,0,0,1-12.275,20.861Zm0,0" transform="translate(-147.4 -140.257)"/><path class="h" d="M128.883,195.88h-12.72a1.3,1.3,0,0,1-.571-.13c-17.6-8.5-28.53-25.222-28.53-43.629V139.987a1.252,1.252,0,0,1,1.274-1.229H156.71a1.252,1.252,0,0,1,1.274,1.229v12.134c0,18.407-10.932,35.125-28.529,43.629a1.333,1.333,0,0,1-.572.13Zm-12.417-2.459h12.115c16.573-8.123,26.855-23.922,26.855-41.3v-10.9H89.61v10.9c0,17.378,10.282,33.177,26.856,41.3Zm0,0" transform="translate(-73.058 -132.581)"/><path class="h" d="M166.566,284.631h-15.5a1.292,1.292,0,0,1-.934-.394,1.2,1.2,0,0,1-.337-.93l.839-10.524a1.232,1.232,0,0,1,.645-.978,1.321,1.321,0,0,1,1.2-.024l.088.045h12.1l.194-.1a1.319,1.319,0,0,1,1.189.013,1.229,1.229,0,0,1,.66.956l1.124,10.581a1.2,1.2,0,0,1-.32.949,1.3,1.3,0,0,1-.947.4Zm-14.128-2.458h12.717l-.838-7.888h-11.25Zm0,0" transform="translate(-109.151 -210.986)"/><g transform="translate(36.255 17.815)"><ellipse class="i" cx="12.5" cy="13" rx="12.5" ry="13" transform="translate(1.297 0.493)"/><g transform="translate(0 0.212)"><g transform="translate(0 0)"><path class="d" d="M1889.85,904.146a13.524,13.524,0,1,1,13.521-13.525,13.541,13.541,0,0,1-13.521,13.525Zm0-24.751a11.227,11.227,0,1,0,11.224,11.226A11.153,11.153,0,0,0,1889.85,879.4Z" transform="translate(-1876.323 -877.098)"/><g transform="translate(11.208 0.591)"><path class="d" d="M1899.829,892.843a13.356,13.356,0,0,1-13.343-13.338,12.939,12.939,0,0,1,.067-1.312.588.588,0,0,1,.531-.53c.432-.042.869-.065,1.313-.065a13.353,13.353,0,0,1,13.337,13.337,12.869,12.869,0,0,1-.067,1.313.59.59,0,0,1-.531.53c-.429.042-.866.065-1.307.065ZM1887.691,878.8c-.015.233-.022.466-.022.7a12.171,12.171,0,0,0,12.16,12.155c.235,0,.468-.007.7-.021.015-.232.022-.467.022-.7a12.168,12.168,0,0,0-12.155-12.154q-.358,0-.707.021Z" transform="translate(-1886.486 -877.598)"/></g><g transform="translate(0.591 11.211)"><path class="d" d="M1890.165,902.508a13.356,13.356,0,0,1-13.343-13.338c0-.441.027-.879.065-1.309a.592.592,0,0,1,.531-.532c.432-.042.868-.065,1.315-.066a13.353,13.353,0,0,1,13.337,13.338c0,.442-.024.879-.065,1.311a.59.59,0,0,1-.533.532c-.432.041-.866.065-1.307.065Zm-12.136-14.042c-.014.233-.023.467-.023.7a12.171,12.171,0,0,0,12.159,12.155c.236,0,.469-.007.7-.021.014-.233.021-.467.021-.7a12.168,12.168,0,0,0-12.154-12.155c-.237,0-.471.008-.7.021Z" transform="translate(-1876.822 -887.261)"/></g><g transform="translate(4.184 4.183)"><path class="d" d="M1881.04,899.657l-.836-.837,17.845-17.843.836.836-17.845,17.844Z" transform="translate(-1880.203 -880.977)"/></g></g></g></g></g></g></svg>