<svg xmlns="http://www.w3.org/2000/svg" width="16.257" height="22.316" viewBox="0 0 16.257 22.316"><g transform="translate(3.548)"><path d="M847.852,1261.427a5.213,5.213,0,1,1,4.659-5.185,4.952,4.952,0,0,1-4.659,5.185Zm0-7.9a2.783,2.783,0,1,0,2.2,2.719,2.5,2.5,0,0,0-2.2-2.719Z" transform="translate(-843.189 -1251.059)"/></g><g transform="translate(0 11.719)"><path d="M855.036,1271.258h-13.2a1.232,1.232,0,0,1-1.229-1.147c-.1-1.429-.2-2.859-.292-4.265a4.566,4.566,0,0,1,2.872-4.274,15.566,15.566,0,0,1,10.486,0,4.554,4.554,0,0,1,2.884,4.282l-.291,4.26a1.233,1.233,0,0,1-1.229,1.147Zm-12.055-2.463h10.9l.212-3.112a2.131,2.131,0,0,0-1.265-1.8,13.151,13.151,0,0,0-8.8,0,2.134,2.134,0,0,0-1.255,1.795c.066,1.028.139,2.07.208,3.113Z" transform="translate(-840.306 -1260.661)"/></g></svg>